<svg width="349" height="57" viewBox="0 0 349 57" fill="none" xmlns="http://www.w3.org/2000/svg">
<path d="M332.822 10.032H348.904V46.1212H332.822V44.4926C332.822 44.232 332.571 44.232 332.508 44.232C332.445 44.232 332.383 44.232 332.32 44.2971C330.372 46.3166 328.174 47.2937 325.661 47.2937C318.437 47.2937 313.16 39.1509 313.16 28.4023C313.16 17.9794 319.128 9.51086 326.478 9.51086H326.54C328.739 9.51086 330.686 10.2926 332.32 11.856C332.383 11.9211 332.445 11.9212 332.508 11.9212C332.571 11.9212 332.822 11.856 332.822 11.5954V10.032ZM332.822 34.8514V21.888C332.822 21.1714 332.257 20.6503 331.566 20.6503C330.875 20.6503 330.372 21.1714 330.372 21.888V34.8514C330.372 35.568 330.875 36.0891 331.566 36.0891C332.257 36.0891 332.822 35.568 332.822 34.8514Z" fill="#FF8A00"/>
<path d="M302.004 31.7246L293.273 32.9623C292.519 33.0274 292.267 33.744 292.267 34.2C292.267 34.3303 292.33 35.4377 293.398 35.4377C293.461 35.4377 293.524 35.4377 293.587 35.4377L311.05 32.8971V46.1211H286.928C281.149 46.1211 276.5 41.3006 276.5 35.3074C276.5 29.9006 280.395 25.1451 285.546 24.4286L294.466 23.1257C295.283 23.0606 295.471 22.4091 295.471 21.9531C295.471 21.8228 295.345 20.6503 294.466 20.6503C294.34 20.6503 294.278 20.7154 294.152 20.7154L276.5 23.256V10.032H300.622C306.402 10.032 311.05 14.9177 311.05 20.9108C311.05 26.3177 307.155 30.8777 302.004 31.7246Z" fill="#FF8A00"/>
<path d="M264.277 31.7246L255.545 32.9623C254.791 33.0274 254.54 33.744 254.54 34.2C254.54 34.3303 254.603 35.4377 255.671 35.4377C255.733 35.4377 255.796 35.4377 255.859 35.4377L273.323 32.8971V46.1211H249.2C243.421 46.1211 238.772 41.3006 238.772 35.3074C238.772 29.9006 242.667 25.1451 247.818 24.4286L256.739 23.1257C257.555 23.0606 257.744 22.4091 257.744 21.9531C257.744 21.8228 257.618 20.6503 256.739 20.6503C256.613 20.6503 256.55 20.7154 256.424 20.7154L238.772 23.256V10.032H262.895C268.674 10.032 273.323 14.9177 273.323 20.9108C273.323 26.3177 269.428 30.8777 264.277 31.7246Z" fill="#FF8A00"/>
<path d="M235.466 9.70628C235.152 11.9863 233.958 13.8754 232.262 15.1131C230.566 16.3509 228.87 16.7417 227.551 16.7417C227.111 16.7417 226.734 16.6766 226.294 16.6114C224.096 16.1554 222.274 14.9829 221.08 13.224C219.824 11.4651 219.51 9.70628 219.51 8.40342C219.51 7.94742 219.573 7.49142 219.635 7.03543C219.95 4.75542 221.143 2.86628 222.839 1.56343C224.535 0.325714 226.231 0 227.488 0C227.927 0 228.367 0.065142 228.87 0.130284C231.068 0.455998 232.89 1.69371 234.084 3.45257C235.277 5.21143 235.591 6.97029 235.591 8.27314C235.591 8.72914 235.528 9.18514 235.466 9.70628ZM235.591 46.1211H219.51V19.2171H235.591V46.1211Z" fill="#FF8A00"/>
<path d="M205.147 9.51086C212.371 9.51086 217.648 17.6537 217.648 28.4023C217.648 38.76 211.68 47.2937 204.268 47.2937C202.069 47.2937 200.184 46.512 198.488 44.8834C198.426 44.8183 198.363 44.8183 198.3 44.8183C198.237 44.8183 197.986 44.8834 197.986 45.144V56.9349H181.904V10.032H197.986V12.2469C197.986 12.5074 198.237 12.5074 198.3 12.5074C198.363 12.5074 198.426 12.5074 198.488 12.4423C200.373 10.488 202.572 9.51086 205.147 9.51086ZM200.436 34.8514V21.888C200.436 21.1714 199.87 20.6503 199.179 20.6503C198.488 20.6503 197.986 21.1714 197.986 21.888V34.8514C197.986 35.568 198.488 36.0892 199.179 36.0892C199.87 36.0892 200.436 35.568 200.436 34.8514Z" fill="#FF8A00"/>
<path d="M146.353 9.51086H146.416C156.467 9.51086 164.633 17.9794 164.633 28.4023C164.633 38.76 156.341 47.2937 146.353 47.2937C136.302 47.2937 128.136 38.76 128.136 28.4023C128.136 17.9794 136.302 9.51086 146.353 9.51086ZM147.609 34.8514V21.888C147.609 21.1714 147.107 20.6503 146.416 20.6503C145.725 20.6503 145.222 21.1714 145.222 21.888V34.8514C145.222 35.568 145.725 36.0891 146.416 36.0891C147.107 36.0891 147.609 35.568 147.609 34.8514Z" fill="#FF8A00"/>
<path d="M110.197 10.032H126.279V39.9977C126.279 52.6354 119.997 56.9349 109.883 56.9349H105.863V48.4663H109.883C110.072 48.4663 110.197 48.4012 110.197 48.2057V44.4926C110.197 44.232 109.946 44.232 109.883 44.232C109.82 44.232 109.758 44.232 109.695 44.2972C107.747 46.3166 105.549 47.2937 103.036 47.2937C95.8119 47.2937 90.5352 39.1509 90.5352 28.4023C90.5352 17.9794 96.5029 9.51086 103.853 9.51086H103.915C106.114 9.51086 108.061 10.2926 109.695 11.856C109.758 11.9212 109.82 11.9212 109.883 11.9212C109.946 11.9212 110.197 11.856 110.197 11.5954V10.032ZM110.197 34.8514V21.888C110.197 21.1714 109.632 20.6503 108.941 20.6503C108.25 20.6503 107.747 21.1714 107.747 21.888V34.8514C107.747 35.568 108.25 36.0892 108.941 36.0892C109.632 36.0892 110.197 35.568 110.197 34.8514Z" fill="#FF8A00"/>
<path d="M56.0518 9.51086H56.1146C66.1655 9.51086 74.3319 17.9794 74.3319 28.4023C74.3319 38.76 66.0399 47.2937 56.0518 47.2937C46.0009 47.2937 37.8345 38.76 37.8345 28.4023C37.8345 17.9794 46.0009 9.51086 56.0518 9.51086ZM57.3082 34.8514V21.888C57.3082 21.1714 56.8056 20.6503 56.1146 20.6503C55.4236 20.6503 54.9211 21.1714 54.9211 21.888V34.8514C54.9211 35.568 55.4236 36.0891 56.1146 36.0891C56.8056 36.0891 57.3082 35.568 57.3082 34.8514Z" fill="#FF8A00"/>
<path d="M19.896 10.032H35.9775V39.9977C35.9775 52.6354 29.6957 56.9349 19.5819 56.9349H15.5616V48.4663H19.5819C19.7704 48.4663 19.896 48.4012 19.896 48.2057V44.4926C19.896 44.232 19.6448 44.232 19.5819 44.232C19.5191 44.232 19.4563 44.232 19.3935 44.2972C17.4461 46.3166 15.2475 47.2937 12.7347 47.2937C5.51063 47.2937 0.233887 39.1509 0.233887 28.4023C0.233887 17.9794 6.20163 9.51086 13.5514 9.51086H13.6142C15.8128 9.51086 17.7602 10.2926 19.3935 11.856C19.4563 11.9212 19.5191 11.9212 19.5819 11.9212C19.6448 11.9212 19.896 11.856 19.896 11.5954V10.032ZM19.896 34.8514V21.888C19.896 21.1714 19.3307 20.6503 18.6397 20.6503C17.9487 20.6503 17.4461 21.1714 17.4461 21.888V34.8514C17.4461 35.568 17.9487 36.0892 18.6397 36.0892C19.3307 36.0892 19.896 35.568 19.896 34.8514Z" fill="#FF8A00"/>
</svg>
